<svg width="37" height="37" viewBox="0 0 37 37" fill="none" xmlns="http://www.w3.org/2000/svg">
<g id="Group 48097591">
<g id="Group 906">
<circle id="Ellipse 35" cx="18.8929" cy="18.5" r="18" fill="#DFF3FF"/>
</g>
<g id="Group 48097589">
<g id="Group">
<path id="Vector" d="M16.4068 18.2224C16.86 18.6766 17.467 18.9444 18.1078 18.9729V19.515H18.1109C18.1171 19.7848 18.3377 20.0001 18.6076 20.0001C18.8774 20.0001 19.0979 19.7848 19.1041 19.515H19.1071V18.9491C19.5483 18.9178 19.9614 18.7216 20.2648 18.3997C20.568 18.0778 20.739 17.6537 20.7441 17.2114C20.7739 16.7495 20.6088 16.2963 20.2891 15.9617C19.9713 15.6948 19.5771 15.5355 19.1629 15.5068L18.4672 15.4077H18.4674C18.2661 15.3868 18.0758 15.3058 17.9213 15.1752C17.8071 15.0647 17.7442 14.9115 17.7475 14.7526C17.7475 14.3484 18.0448 14.0085 18.6574 14.0085C19.0985 13.9745 19.5346 14.1204 19.8666 14.4128L19.8677 14.4115V14.4116C19.9638 14.5113 20.0964 14.5675 20.2349 14.5675C20.3733 14.5675 20.5057 14.5113 20.602 14.4116C20.6981 14.312 20.7497 14.1776 20.7448 14.0393C20.7398 13.9009 20.679 13.7705 20.5759 13.6779C20.1759 13.2992 19.6566 13.0715 19.107 13.034V12.4725C19.086 12.2105 18.8703 12.0068 18.6077 12.0002C18.3467 12.0009 18.1292 12.2003 18.1059 12.4603L18.108 13.0705V13.0706C17.6945 13.1287 17.3166 13.3362 17.0457 13.6539C16.7747 13.9716 16.6296 14.3776 16.6376 14.7951C16.613 15.223 16.7658 15.6421 17.0601 15.9536C17.3792 16.234 17.7795 16.4054 18.2025 16.4429L18.9142 16.542C19.106 16.5516 19.2895 16.6241 19.436 16.7483C19.5644 16.8807 19.6305 17.0615 19.618 17.2456C19.618 17.7169 19.254 17.9735 18.5745 17.9735C18.0582 18.0068 17.5501 17.8312 17.1642 17.4865C17.0675 17.3856 16.9344 17.3275 16.7946 17.325C16.6548 17.3227 16.5199 17.3759 16.4196 17.4733C16.3193 17.5708 16.2621 17.7042 16.2606 17.844C16.2589 17.9838 16.3131 18.1184 16.4112 18.2181L16.4068 18.2224Z" fill="#4499FE"/>
<path id="Vector_2" d="M26.9878 15.7142L24.5021 14.3332V12.0001C24.5021 11.4695 24.2913 10.9609 23.9163 10.5858C23.5411 10.2108 23.0325 10 22.502 10H14.5023C13.9718 10 13.4632 10.2108 13.088 10.5858C12.713 10.9609 12.5023 11.4695 12.5023 12.0001V14.3332L10.0165 15.7142C9.86069 15.8008 9.73078 15.9275 9.64038 16.0812C9.54998 16.235 9.50226 16.41 9.50226 16.5884V25C9.50226 25.7957 9.81833 26.5588 10.381 27.1213C10.9435 27.6839 11.7066 28 12.5023 28H24.5022C25.2979 28 26.061 27.6839 26.6235 27.1213C27.1862 26.5588 27.5022 25.7957 27.5022 25V16.5884C27.5022 16.41 27.4545 16.235 27.3641 16.0812C27.2737 15.9275 27.1438 15.8008 26.988 15.7142H26.9878ZM24.837 18.921L18.8371 21.921C18.6263 22.0263 18.378 22.0263 18.1671 21.921L12.1671 18.921C11.9891 18.8321 11.8538 18.6762 11.7907 18.4875C11.7278 18.2989 11.7424 18.093 11.8311 17.915C11.92 17.7371 12.0758 17.6016 12.2645 17.5387C12.4532 17.4757 12.6591 17.4903 12.837 17.579L13.502 17.9117V12C13.5023 11.7348 13.6078 11.4807 13.7953 11.2932C13.9828 11.1057 14.2369 11.0002 14.5021 10.9999H22.5022H22.5021C22.7672 11.0002 23.0214 11.1057 23.2089 11.2932C23.3964 11.4807 23.5018 11.7348 23.5022 12V17.9117L24.1671 17.5792V17.579C24.3451 17.4903 24.551 17.4757 24.7397 17.5387C24.9283 17.6016 25.0842 17.7371 25.1731 17.915C25.2618 18.093 25.2764 18.2989 25.2134 18.4875C25.1503 18.6762 25.015 18.8321 24.8371 18.921H24.837Z" fill="#4499FE"/>
</g>
</g>
</g>
</svg>
