<svg width="36" height="37" viewBox="0 0 36 37" fill="none" xmlns="http://www.w3.org/2000/svg">
<g id="Group 48097592">
<g id="Group 905">
<circle id="Ellipse 36" cx="18" cy="18.5" r="18" fill="#FFF6DF"/>
</g>
<g id="Group 48097590">
<path id="Vector" d="M17.9483 19.2088C17.9694 19.1877 17.9907 19.1665 18.0118 19.1665C17.504 18.3414 16.6577 17.8336 15.621 17.8548C15.4941 17.8548 15.3672 17.9394 15.3248 18.0664L14.2881 21.1554L13.9285 19.3148H13.9919C14.1189 19.3148 14.2247 19.209 14.2247 19.0821V18.4473C14.2247 18.3204 14.1189 18.2146 13.9919 18.2146H13.1668C13.0399 18.2146 12.9341 18.3204 12.9341 18.4473V19.0821C12.9341 19.209 13.0399 19.3148 13.1668 19.3148H13.2303L12.8706 21.1554L11.8339 18.0664C11.7916 17.9395 11.6858 17.8548 11.5377 17.8548C10.1202 17.8125 9.06241 18.8068 8.74499 20.2032L8.02585 23.1863C7.87768 23.8634 8.38549 24.498 9.06256 24.498H15.9385V24.4769L16.6366 21.4725C16.8481 20.5629 17.2925 19.7801 17.9483 19.2089L17.9483 19.2088Z" fill="#F88341"/>
<path id="Vector_2" d="M16.8692 14.3004C16.8692 16.1233 15.3916 17.601 13.5688 17.601C11.746 17.601 10.2684 16.1233 10.2684 14.3004C10.2684 12.4777 11.746 11 13.5688 11C15.3916 11 16.8692 12.4777 16.8692 14.3004Z" fill="#F88341"/>
<path id="Vector_3" d="M28.081 24.7094L27.404 21.7262C27.0867 20.3299 26.0288 19.3355 24.6112 19.3779C24.4843 19.3779 24.3574 19.4624 24.315 19.5895L23.2783 22.6784L22.9187 20.8378H22.9821C23.109 20.8378 23.2148 20.732 23.2148 20.6051V19.9704C23.2148 19.8435 23.109 19.7376 22.9821 19.7376H22.157C22.0301 19.7376 21.9243 19.8435 21.9243 19.9704V20.6051C21.9243 20.732 22.0301 20.8378 22.157 20.8378H22.2205L21.8608 22.6784L20.7819 19.5684C20.7395 19.4415 20.6337 19.3568 20.4857 19.3568C19.0682 19.3144 18.0104 20.3088 17.6929 21.7052L17.0158 24.6883C16.8677 25.3654 17.3755 26 18.0526 26H27.023C27.7213 26 28.229 25.3654 28.081 24.7094L28.081 24.7094Z" fill="#F88341"/>
<path id="Vector_4" d="M25.8425 15.8236C25.8425 17.6465 24.365 19.124 22.5421 19.124C20.7194 19.124 19.2417 17.6465 19.2417 15.8236C19.2417 14.0009 20.7194 12.5232 22.5421 12.5232C24.365 12.5232 25.8425 14.0009 25.8425 15.8236Z" fill="#F88341"/>
</g>
</g>
</svg>
